<svg xmlns="http://www.w3.org/2000/svg" width="31.419" height="9.525" viewBox="0 0 31.419 9.525">
  <g id="Group_4" data-name="Group 4" transform="translate(-8 -10.437)">
    <path id="Shape" d="M0,8.977,1.6,0H4.089L2.543,8.977Z" transform="translate(19.52 10.737)" fill="#fff"/>
    <path id="Shape-2" data-name="Shape" d="M0,8.977,2.045,0H4.089L2.543,8.977Z" transform="translate(19.52 10.737)" fill="#fff"/>
    <path id="Shape-3" data-name="Shape" d="M7.63.4A6.325,6.325,0,0,0,5.336,0C2.843,0,1.047,1.247,1.047,3.042c0,1.346,1.247,2.045,2.244,2.494s1.3.748,1.3,1.147c0,.6-.8.9-1.5.9A5.421,5.421,0,0,1,.7,7.082l-.349-.15L0,8.977a8.086,8.086,0,0,0,2.843.5c2.643,0,4.389-1.247,4.389-3.142,0-1.047-.648-1.845-2.144-2.494-.9-.449-1.446-.7-1.446-1.147,0-.4.449-.8,1.446-.8a4.574,4.574,0,0,1,1.9.349l.249.1L7.63.4Z" transform="translate(23.46 10.437)" fill="#fff"/>
    <path id="Shape-4" data-name="Shape" d="M7.63.4A6.325,6.325,0,0,0,5.336,0C2.843,0,1.5,1.247,1.5,3.042a2.607,2.607,0,0,0,1.8,2.494c1,.449,1.3.748,1.3,1.147,0,.6-.8.9-1.5.9A5.421,5.421,0,0,1,.7,7.082l-.349-.15L0,8.977a8.086,8.086,0,0,0,2.843.5c2.643,0,4.389-1.247,4.389-3.142,0-1.047-.648-1.845-2.144-2.494-.9-.449-1.446-.7-1.446-1.147,0-.4.449-.8,1.446-.8a4.574,4.574,0,0,1,1.9.349l.249.1L7.63.4Z" transform="translate(23.46 10.437)" fill="#fff"/>
    <path id="Shape-5" data-name="Shape" d="M2.693,8.977H0L3.74.648c.251-.6.7-.648,1.3-.648H6.982L9.076,8.975H6.683l-.3-1.5H3.191l-.5,1.5ZM5.236,2.444c-.146.342-.341.876-.349.9s-.849,2.2-1,2.642v.05H5.984c-.094-.472-.547-2.51-.6-2.741Z" transform="translate(30.342 10.737)" fill="#fff"/>
    <path id="Shape-6" data-name="Shape" d="M2.693,8.977H0L4.339.648c.251-.6.7-.648,1.3-.648H6.982L9.076,8.975H6.683l-.3-1.5H3.191l-.5,1.5ZM5.236,2.444c-.146.342-.341.876-.349.9s-.8,2.146-1,2.642v.05H5.984c-.094-.472-.547-2.51-.6-2.741Z" transform="translate(30.342 10.737)" fill="#fff"/>
    <path id="Shape-7" data-name="Shape" d="M3.74,6.234l-.249-1.3A7.229,7.229,0,0,0,0,1L2.244,8.977H4.937L8.977,0H6.284Z" transform="translate(11.191 10.786)" fill="#fff"/>
    <path id="Shape-8" data-name="Shape" d="M3.74,6.234l-.249-1.3A7.229,7.229,0,0,0,0,1L2.244,8.977H4.937L8.977,0H6.782Z" transform="translate(11.191 10.786)" fill="#fff"/>
    <path id="Shape-9" data-name="Shape" d="M0,0,.449.1A8.41,8.41,0,0,1,6.683,4.987L5.785.748C5.635.15,5.186,0,4.638,0H0Z" transform="translate(8 10.737)" fill="#fff"/>
    <path id="Shape-10" data-name="Shape" d="M0,0H0C3.192.748,5.835,2.693,6.683,4.937L5.835,1.4a1.217,1.217,0,0,0-1.2-.948Z" transform="translate(8 10.737)" fill="#fff"/>
    <path id="Shape-11" data-name="Shape" d="M0,0H0C3.192.748,5.835,2.693,6.683,4.937l-.6-1.945A1.759,1.759,0,0,0,5.037,1.546Z" transform="translate(8 10.737)" fill="#fff"/>
    <path id="Shape-12" data-name="Shape" d="M6.184,4.987l-1.7-1.7-.8,1.9-.2-1.247A7.229,7.229,0,0,0,0,0L2.244,7.979H4.937Z" transform="translate(11.241 11.734)" fill="#fff"/>
    <path id="Shape-13" data-name="Shape" d="M2.543,2.194.4,0,0,2.194Z" transform="translate(19.52 17.519)" fill="#fff"/>
    <path id="Shape-14" data-name="Shape" d="M4.339,0h0c.2.2.3.349.249.549,0,.6-.8.9-1.5.9A5.421,5.421,0,0,1,.7.948L.349.8,0,2.843a8.086,8.086,0,0,0,2.843.5A4.938,4.938,0,0,0,6.483,2.095Z" transform="translate(23.46 16.621)" fill="#fff"/>
    <path id="Shape-15" data-name="Shape" d="M0,6.533H2.344l.5-1.5H6.034l.3,1.5H8.727L7.879,2.892,4.887,0l.15.8s.5,2.244.6,2.743H3.541c.2-.5,1-2.643,1-2.643s.2-.549.349-.9" transform="translate(30.691 13.18)" fill="#fff"/>
  </g>
</svg>
