<svg xmlns="http://www.w3.org/2000/svg" width="45.06" height="16.267" viewBox="0 0 45.06 16.267">
  <g id="Ico" transform="translate(0 -0.648)">
    <path id="Shape" d="M1.717,5.995a1.791,1.791,0,0,1-.762-.179A1.7,1.7,0,0,1,0,4.208,3.876,3.876,0,0,1,1.667.655,3.769,3.769,0,0,1,3.9,0C4,0,4.11,0,4.217.009a7.655,7.655,0,0,1,.889.123c.163.029.332.059.5.083a.226.226,0,0,1,.161.079.282.282,0,0,1,.021.22q-.075.4-.152.805c-.156.82-.317,1.667-.451,2.5-.082.511-.114,1.039-.146,1.55q-.007.118-.015.235c-.011.166-.045.245-.212.245H4.786c-.168-.005-.339-.008-.508-.008s-.34,0-.508.008H3.746A.2.2,0,0,1,3.591,5.8a.234.234,0,0,1-.036-.184c.017-.192.028-.382.039-.583,0-.09.01-.178.015-.267-.087.093-.168.186-.247.276a4.055,4.055,0,0,1-.519.528A1.792,1.792,0,0,1,1.717,5.995ZM3.533,1.249a1.325,1.325,0,0,0-.884.341A2.684,2.684,0,0,0,1.695,3.91a.692.692,0,0,0,.689.738.784.784,0,0,0,.521-.222,1.9,1.9,0,0,0,.365-.417,4.905,4.905,0,0,0,.6-1.985c.036-.233.073-.473.12-.708A1.677,1.677,0,0,0,3.533,1.249Z" transform="translate(6.063 7.322)"/>
    <path id="Shape-2" data-name="Shape" d="M17.107,1.021A2.426,2.426,0,0,0,14.634.039C14.5.07,14.358.1,14.219.131a8.689,8.689,0,0,0-2.381.847A18.346,18.346,0,0,0,7.405,4.23q-1.317,1.3-2.553,2.683a25.041,25.041,0,0,0-3.668,5.356A11.824,11.824,0,0,0,.012,15.433a1.434,1.434,0,0,0,.091.654c.028.082.177.146.281.179.028.008.113-.13.15-.21a16.182,16.182,0,0,1,.726-1.6c.589-1,1.2-1.992,1.864-2.947A32.835,32.835,0,0,1,6.69,7.239a17.586,17.586,0,0,1,4.025-3.33,23.19,23.19,0,0,1,2.175-1.08,16.677,16.677,0,0,1,3.992-1.117.555.555,0,0,0,.391-.264C17.312,1.342,17.107,1.021,17.107,1.021Z" transform="translate(11.176 0.648)" fill="#ff8100"/>
    <path id="Shape-3" data-name="Shape" d="M.559,7.941H0c.026-.145.05-.286.074-.424C.12,7.25.164,7,.211,6.752q.223-1.2.446-2.393l0-.019C.9,3.052,1.15,1.72,1.392.409c.026-.14.066-.225.2-.247A11.4,11.4,0,0,1,3.323,0,5.374,5.374,0,0,1,4.656.156,2.048,2.048,0,0,1,6.27,1.773,2.8,2.8,0,0,1,4.355,4.907a4.573,4.573,0,0,1-1.5.239c-.176,0-.359-.009-.546-.026l-.056,0c-.114,0-.158.046-.184.19-.127.71-.273,1.489-.46,2.451-.011.069-.07.172-.108.174C1.178,7.94.857,7.941.559,7.941Zm2.9-6.618a4.154,4.154,0,0,0-.554.045.206.206,0,0,0-.126.137c-.124.645-.244,1.3-.372,2l-.053.289c.1,0,.206,0,.3.005s.189,0,.279,0a3.026,3.026,0,0,0,.339-.016A1.48,1.48,0,0,0,4.548,2.91,1.24,1.24,0,0,0,4.6,1.919a.874.874,0,0,0-.513-.493A1.806,1.806,0,0,0,3.455,1.324Z" transform="translate(0 5.224)"/>
    <path id="Shape-4" data-name="Shape" d="M2.173,3.6A5.809,5.809,0,0,0,.613.26,1.006,1.006,0,0,0,.226.016C.082-.037-.013.046,0,.215c.012.148.025.3.05.444C.227,1.677.4,2.7.586,3.714q.222,1.191.486,2.375a3.206,3.206,0,0,0,.277.74c.09.178.22.164.341,0a.827.827,0,0,0,.134-.215,7.122,7.122,0,0,0,.411-2.264C2.215,4.1,2.2,3.849,2.173,3.6Z" transform="translate(12.17 1.735)" fill="#ff8100"/>
    <path id="Shape-5" data-name="Shape" d="M2.22,1.273C2.253.9,2.28.529,2.311.132c-.448,0-.866-.006-1.277.008C.985.142.9.245.9.305a38.735,38.735,0,0,1-.692,4.37C.136,5.051.072,5.427,0,5.841c.537,0,1.04,0,1.545-.008.038,0,.094-.11.107-.173.158-.79.28-1.592.467-2.377a1.813,1.813,0,0,1,1.8-1.663.183.183,0,0,0,.127-.1c.1-.49.193-.979.294-1.509A2.175,2.175,0,0,0,2.22,1.273Z" transform="translate(40.722 7.326)"/>
    <path id="Shape-6" data-name="Shape" d="M2.52,5.993h0a3.879,3.879,0,0,1-1.044-.143A1.944,1.944,0,0,1,.032,4.055,3.643,3.643,0,0,1,.963,1.028,2.891,2.891,0,0,1,3.137,0a3.275,3.275,0,0,1,.887.129A1.525,1.525,0,0,1,5.183,1.624a1.581,1.581,0,0,1-.967,1.616,5.214,5.214,0,0,1-2.159.388l-.153,0H1.59A.957.957,0,0,0,2.5,4.67a3.091,3.091,0,0,0,.373.023A3.448,3.448,0,0,0,4.09,4.461c.088-.03.177-.065.285-.108q.012.12.024.238c.029.278.056.541.069.8a.271.271,0,0,1-.134.2A4.692,4.692,0,0,1,2.52,5.993Zm.5-4.789A1.386,1.386,0,0,0,1.743,2.441c.107-.007.212-.013.316-.018.238-.012.46-.023.683-.054a2.312,2.312,0,0,0,.636-.187.482.482,0,0,0,.283-.542.471.471,0,0,0-.4-.4A.9.9,0,0,0,3.025,1.2Z" transform="translate(35.451 7.321)"/>
    <path id="Shape-7" data-name="Shape" d="M5.726,1.2A1.27,1.27,0,0,0,4.66.033,2.161,2.161,0,0,0,2.787.607c-.147.13-.286.271-.446.425.022-.3.046-.59.068-.89H1.024C.682,2.039.345,3.921,0,5.842c.533,0,1.014.007,1.5-.009.054,0,.138-.115.151-.188.12-.614.229-1.234.334-1.85a5,5,0,0,1,.482-1.641,1.505,1.505,0,0,1,.821-.786.535.535,0,0,1,.757.5,1.378,1.378,0,0,1,0,.376c-.113.721-.234,1.441-.358,2.159-.081.47-.17.938-.256,1.4.044.021.065.038.086.038.469,0,.939.013,1.407,0,.054,0,.135-.111.151-.181.16-.809.309-1.616.459-2.428A6.908,6.908,0,0,0,5.726,1.2Z" transform="translate(23.631 7.321)"/>
    <path id="Shape-8" data-name="Shape" d="M2.518,6h0a3.92,3.92,0,0,1-1-.131A1.936,1.936,0,0,1,.028,4.056a3.622,3.622,0,0,1,1.22-3.3A2.846,2.846,0,0,1,3.151,0a3.1,3.1,0,0,1,.9.14A1.551,1.551,0,0,1,5.184,1.612a1.566,1.566,0,0,1-.911,1.607,4.026,4.026,0,0,1-1.625.391c-.12.008-.25.011-.406.011-.108,0-.217,0-.326,0s-.221,0-.332,0a.982.982,0,0,0,.924,1.064,3,3,0,0,0,.377.024,3.42,3.42,0,0,0,1.249-.25L4.2,4.429c.038-.014.075-.029.113-.042a.05.05,0,0,1,.017,0h.052q.012.13.025.261c.024.248.05.505.064.759a.275.275,0,0,1-.135.2A4.7,4.7,0,0,1,2.518,6Zm.506-4.788A1.387,1.387,0,0,0,1.745,2.4a1.9,1.9,0,0,0,.387.033,3.141,3.141,0,0,0,1.226-.226.524.524,0,0,0,.305-.554.489.489,0,0,0-.414-.416A.933.933,0,0,0,3.024,1.211Z" transform="translate(30.005 7.315)"/>
    <path id="Shape-9" data-name="Shape" d="M2.7,5.972H2.693C1.3,5.972.44,5.457.128,4.442A3.7,3.7,0,0,1,.621,1.459,3.108,3.108,0,0,1,2.922.026,3.909,3.909,0,0,1,3.36,0a2.369,2.369,0,0,1,1.49.472A2.18,2.18,0,0,1,5.7,2.151,3.849,3.849,0,0,1,5.3,4.182,3.06,3.06,0,0,1,2.7,5.972Zm.444-4.71a1.073,1.073,0,0,0-.246.03,1.131,1.131,0,0,0-.662.48,3.06,3.06,0,0,0-.549,1.766c0,.026,0,.052,0,.079,0,.06,0,.12,0,.179a.906.906,0,0,0,.895.918c.031,0,.064,0,.1,0a1.006,1.006,0,0,0,.717-.424A2.993,2.993,0,0,0,4,2.143.864.864,0,0,0,3.144,1.263Z" transform="translate(17.652 7.326)"/>
  </g>
</svg>
