<svg id="logo" xmlns="http://www.w3.org/2000/svg" width="40.146" height="11.429" viewBox="0 0 40.146 11.429">
  <path id="Shape" d="M2.082,8.572H.3C.1,8.572,0,8.48,0,8.3L1.388.361A.651.651,0,0,1,1.884,0H5.254A4.3,4.3,0,0,1,7.832.722a2.205,2.205,0,0,1,.4,1.985c-.3,1.975-1.6,2.977-3.866,2.977H3.272c-.306,0-.5.187-.5.361L2.38,8.3C2.38,8.48,2.279,8.572,2.082,8.572ZM3.767,1.8c-.2,0-.3.094-.3.181l-.4,2.074h.595c.877,0,1.784,0,1.983-1.083,0-.45,0-.722-.2-.812-.3-.361-.9-.361-1.487-.361Z" transform="translate(22.15)" fill="#139ad6"/>
  <path id="Shape-2" data-name="Shape" d="M1.884,8.572H.3C.1,8.572,0,8.48,0,8.3L1.388.361A.651.651,0,0,1,1.884,0H5.254A4.078,4.078,0,0,1,7.832.722a2.205,2.205,0,0,1,.4,1.985c-.3,1.975-1.6,2.977-3.866,2.977H3.272c-.306,0-.5.187-.5.361l-.4,2.165A.651.651,0,0,1,1.884,8.572ZM3.866,1.8c-.2,0-.3.094-.3.181l-.4,2.074h.5c.877,0,1.784,0,1.983-1.083.1-.475-.013-.734-.1-.812-.3-.361-.9-.361-1.488-.361Z" fill="#263b80"/>
  <path id="Shape-3" data-name="Shape" d="M2.343,5.714A2.1,2.1,0,0,1,.562,5.022,2.614,2.614,0,0,1,.053,2.858,3.288,3.288,0,0,1,3.19,0,1.963,1.963,0,0,1,4.8.606l.086.174L4.972.346c0-.084.165-.174.254-.174H6.583c.085,0,.257.176.339.26L6.159,5.281c-.081.167-.249.346-.424.346H4.462a.228.228,0,0,1-.254-.26l.084-.43v0A2.736,2.736,0,0,1,2.343,5.714ZM3.361,1.559A1.56,1.56,0,0,0,1.834,2.944a1.885,1.885,0,0,0,.254,1.039,1.348,1.348,0,0,0,.933.346A1.645,1.645,0,0,0,4.632,2.944,1.563,1.563,0,0,0,4.293,1.9,1.536,1.536,0,0,0,3.361,1.559Z" transform="translate(6.922 2.857)" fill="#263b80"/>
  <path id="Shape-4" data-name="Shape" d="M2.343,5.714A2.1,2.1,0,0,1,.562,5.022,2.614,2.614,0,0,1,.053,2.858,3.288,3.288,0,0,1,3.19,0,1.963,1.963,0,0,1,4.8.606l.086.174L4.972.346c0-.084.165-.174.254-.174H6.583a.373.373,0,0,1,.278.188.946.946,0,0,0,.061.072L6.159,5.281c-.081.167-.249.346-.424.346H4.462a.228.228,0,0,1-.254-.26l.084-.43v0A2.736,2.736,0,0,1,2.343,5.714ZM3.361,1.559A1.56,1.56,0,0,0,1.834,2.944a1.885,1.885,0,0,0,.254,1.039,1.348,1.348,0,0,0,.933.346A1.645,1.645,0,0,0,4.632,2.944,1.008,1.008,0,0,0,4.293,1.9,1.536,1.536,0,0,0,3.361,1.559Z" transform="translate(30.456 2.857)" fill="#139ad6"/>
  <path id="Shape-5" data-name="Shape" d="M6.7,0H5.222a.438.438,0,0,0-.348.2L2.959,3.547,2.089.394A.4.4,0,0,0,1.654.1H.261C.087.1,0,.3,0,.493L1.567,5.714.087,8.079c-.087.2,0,.493.174.493H1.654A.438.438,0,0,0,2,8.374L6.789.591C7.05.3,6.876,0,6.7,0" transform="translate(15.228 2.857)" fill="#263b80"/>
  <path id="Shape-6" data-name="Shape" d="M1.077.215,0,8.3q0,.27.231.27H1.307c.154,0,.308-.18.385-.359L2.769.3q0-.27-.231-.27H1.307c-.077-.09-.154,0-.231.18" transform="translate(37.378 0)" fill="#139ad6"/>
</svg>
