 <svg version="1.0" xmlns="http://www.w3.org/2000/svg"  width="40" height="40" viewBox="0 0 100.000000 100.000000"  preserveAspectRatio="xMidYMid meet">  
 <g transform="translate(0.000000,100.000000) scale(0.100000,-0.100000)" fill="#000000" stroke="none"> 
 <path d="M50 942 c0 -4 34 -41 74 -81 l75 -74 -25 -30 -25 -30 3 -233 3 -234 33 -32 32 -33 287 -2 286 -2 73 -72 c40 -40 77 -70 81 -66 4 4 -27 42 -69 85 l-77 77 25 29 25 28 -3 234 -3 234 -33 32 -32 33 -287 2 -286 2 -71 70 c-68 68 -86 81 -86 63z m729 -166 c46 -24 51 -50 51 -277 0 -169 -3 -216 -15 -239 -9 -17 -20 -30 -25 -30 -18 0 -22 22 -6 39 13 14 16 38 14 112 -1 77 -2 85 -7 41 l-6 -53 -65 66 c-35 36 -69 65 -75 65 -6 0 -24 -14 -40 -30 l-29 -31 -153 153 -153 153 212 5 213 6 -221 2 c-183 2 -224 5 -234 17 -11 13 18 15 249 15 207 0 268 -3 290 -14z m-554 -17 c4 -5 0 -18 -9 -28 -14 -15 -16 -50 -16 -231 0 -206 1 -215 22 -237 21 -23 23 -23 274 -23 211 0 254 -2 264 -15 11 -13 -18 -15 -248 -15 -282 0 -303 3 -328 51 -21 42 -20 438 1 479 16 31 29 37 40 19z m178 -177 c141 -141 156 -160 142 -172 -14 -12 -27 -3 -103 73 -48 48 -92 87 -97 87 -5 0 -38 -28 -72 -62 l-63 -62 0 127 c0 117 8 167 28 167 4 0 78 -71 165 -158z m107 -177 l155 -155 -208 0 c-251 0 -247 -2 -247 112 l0 72 62 63 c34 35 67 63 73 63 6 0 80 -70 165 -155z m212 18 c72 -72 85 -106 54 -149 -14 -18 -19 -15 -105 71 l-91 89 27 28 c15 15 31 28 37 28 6 0 41 -30 78 -67z m-18 -171 c-22 -3 -40 9 -97 67 -62 61 -69 72 -57 86 12 14 22 7 97 -67 80 -79 82 -83 57 -86z"></path> <path d="M626 664 c-34 -33 -9 -94 38 -94 28 0 56 29 56 57 0 44 -63 69 -94 37z m68 -10 c9 -8 16 -22 16 -29 0 -7 -7 -21 -16 -29 -8 -9 -22 -16 -29 -16 -18 0 -45 27 -45 45 0 18 27 45 45 45 7 0 21 -7 29 -16z"></path> <path d="M791 574 c0 -11 3 -14 6 -6 3 7 2 16 -1 19 -3 4 -6 -2 -5 -13z"></path> <path d="M792 515 c0 -16 2 -22 5 -12 2 9 2 23 0 30 -3 6 -5 -1 -5 -18z"></path> </g> </svg> 