<svg id="Behance" xmlns="http://www.w3.org/2000/svg" width="40" height="40" viewBox="0 0 40 40">
  <path id="Img" d="M20,0A20.113,20.113,0,0,1,35.865,7.82,19.7,19.7,0,0,1,40,20,20,20,0,1,1,20,0Z" fill="#dfe1e1"/>
  <path id="Behance-2" data-name="Behance" d="M12.438,10a4.024,4.024,0,0,1-2.574-.887A3.482,3.482,0,0,1,8.747,6.225,3.9,3.9,0,0,1,9.753,3.35a3.574,3.574,0,0,1,2.615-1,4.259,4.259,0,0,1,1.72.338A2.969,2.969,0,0,1,15.35,3.755a3.517,3.517,0,0,1,.584,1.491A9.356,9.356,0,0,1,16,6.678H10.67A1.735,1.735,0,0,0,11.436,8.2a1.982,1.982,0,0,0,1.055.272,1.631,1.631,0,0,0,1.06-.33,1.592,1.592,0,0,0,.394-.5H15.9a2.376,2.376,0,0,1-.708,1.3A3.6,3.6,0,0,1,12.438,10Zm-.069-6.095a1.535,1.535,0,0,0-1.141.412,1.959,1.959,0,0,0-.509,1.117h3.294A1.582,1.582,0,0,0,13.5,4.293,1.712,1.712,0,0,0,12.369,3.905ZM4.455,9.754H0V0H4.778A3.064,3.064,0,0,1,7.34,1.039a2.469,2.469,0,0,1,.454,1.489,2.16,2.16,0,0,1-.457,1.436,2.378,2.378,0,0,1-.754.555,2.233,2.233,0,0,1,1.143.861A2.569,2.569,0,0,1,8.11,6.81a2.828,2.828,0,0,1-.441,1.555,2.72,2.72,0,0,1-.7.768,2.757,2.757,0,0,1-1.116.49A7,7,0,0,1,4.455,9.754ZM1.971,5.46v2.6h2.4a2.369,2.369,0,0,0,1-.172,1.232,1.232,0,0,0,.65-1.218,1.051,1.051,0,0,0-.629-1.047,2.563,2.563,0,0,0-.989-.165Zm0-3.766V3.846h2.4A2.022,2.022,0,0,0,5.422,3.6a.919.919,0,0,0,.4-.856.879.879,0,0,0-.53-.9,3.826,3.826,0,0,0-1.17-.152Zm12.49-.025H10.224V.454h4.237V1.668Z" transform="translate(12 15)" fill="#1769ff"/>
</svg>
