<svg id="Dropbox" xmlns="http://www.w3.org/2000/svg" width="40" height="40" viewBox="0 0 40 40">
  <circle id="Img" cx="20" cy="20" r="20" fill="#1e7dd4"/>
  <path id="Dropbox-2" data-name="Dropbox" d="M8.545,16h0L3.513,12.959V11.847l1.507.993L8.544,9.892l3.523,2.948,1.508-.993v1.112L8.545,16ZM5.023,12.213h0L0,8.908l3.471-2.8,5.062,3.15L5.021,12.211Zm7.025,0h0L8.533,9.256,13.6,6.106,8.533,2.956,12.047,0l5.02,3.3L13.6,6.106l3.471,2.8-5.019,3.3ZM3.472,6.106h0L0,3.3,5.02,0,8.533,2.955,3.472,6.105Z" transform="translate(12 12)" fill="#fff"/>
</svg>
