<svg id="Airbnb" xmlns="http://www.w3.org/2000/svg" width="40" height="40" viewBox="0 0 40 40">
  <circle id="Img" cx="20" cy="20" r="20" fill="#dfe1e1"/>
  <path id="Shape" d="M11.158,15.6a2.362,2.362,0,0,1-.258-.019h-.011a1.639,1.639,0,0,0-.164-.014,3.932,3.932,0,0,1-1.6-.533,8.834,8.834,0,0,1-1.833-1.5,7.724,7.724,0,0,1-1.833,1.5,4.123,4.123,0,0,1-1.6.533,2.072,2.072,0,0,0-.217.016,1.861,1.861,0,0,1-.216.017,3.379,3.379,0,0,1-1.3-.266,3.377,3.377,0,0,1-2.1-2.667,3.934,3.934,0,0,1,.2-1.733c.04-.121.093-.241.143-.357l.008-.018c.03-.068.058-.131.082-.191s.06-.128.083-.182C.57,10.116.6,10.059.625,10a1.97,1.97,0,0,1,.162-.389L.792,9.6l.033-.033c.88-1.942,1.928-4.07,3.4-6.9l.033-.1c.065-.113.123-.234.185-.37s.116-.248.182-.364L4.7,1.717l.046-.076A6.7,6.7,0,0,1,5.192.967,2.663,2.663,0,0,1,9.325,1a3.724,3.724,0,0,1,.534.8l.067.067a4.987,4.987,0,0,0,.363.728l0,.005.033.1c1.251,2.429,2.353,4.686,3.367,6.9l.033.033.2.4a1.111,1.111,0,0,1,.094.2l0,0c.02.053.042.109.07.165a1.111,1.111,0,0,1,.094.2l0,0,0,.009c.02.051.041.1.068.155l.067.2a4.648,4.648,0,0,1,.233,1.7,3.463,3.463,0,0,1-2.1,2.667A3.265,3.265,0,0,1,11.158,15.6ZM7.292,1.3a1.43,1.43,0,0,0-1.1.5,3.449,3.449,0,0,0-.4.634c-.033.067-.067.126-.1.183s-.067.117-.1.183a3.778,3.778,0,0,1-.2.367l-.033.1c-.987,1.912-2.088,4.158-3.367,6.866v.033c-.065.174-.143.346-.219.511-.041.089-.079.174-.114.255a.577.577,0,0,0-.033.083.576.576,0,0,1-.033.083,1.157,1.157,0,0,0-.133.3,2.326,2.326,0,0,0-.167,1.169,2.158,2.158,0,0,0,1.3,1.667,2.416,2.416,0,0,0,.84.145c.085,0,.172,0,.26-.012A2.836,2.836,0,0,0,4.792,14a7,7,0,0,0,1.6-1.367,9.043,9.043,0,0,1-1.8-3.367A3.8,3.8,0,0,1,4.525,7.9a2.622,2.622,0,0,1,.433-1.1,2.814,2.814,0,0,1,2.3-1.167A2.722,2.722,0,0,1,9.558,6.8a2.448,2.448,0,0,1,.434,1.1,3.746,3.746,0,0,1-.067,1.366A7.492,7.492,0,0,1,8.092,12.5a6.06,6.06,0,0,0,1.6,1.366,2.822,2.822,0,0,0,1.1.367,1.648,1.648,0,0,0,.294.026,2.084,2.084,0,0,0,.773-.159,2.205,2.205,0,0,0,1.2-2.767,1.177,1.177,0,0,0-.133-.3.576.576,0,0,1-.033-.083.577.577,0,0,0-.033-.083,3.263,3.263,0,0,0-.167-.366c-.033-.067-.059-.126-.083-.184s-.05-.117-.083-.184l-.033-.067c-1.026-2.178-2.14-4.513-3.334-6.833l-.033-.1a1.281,1.281,0,0,0-.1-.2c-.022-.041-.046-.083-.069-.131a1.229,1.229,0,0,0-.167-.366,3.546,3.546,0,0,0-.4-.634A1.43,1.43,0,0,0,7.292,1.3ZM7.225,6.9a1.388,1.388,0,0,0-1.2.6,1.647,1.647,0,0,0-.2.567,3.76,3.76,0,0,0,0,.867,7.236,7.236,0,0,0,1.4,2.633,7.315,7.315,0,0,0,1.4-2.633,2.543,2.543,0,0,0,.033-.867A1.2,1.2,0,0,0,8.425,7.5,1.374,1.374,0,0,0,7.225,6.9Z" transform="translate(13.075 12.2)" fill="#ff5a5f"/>
</svg>
