<svg id="Dribble" xmlns="http://www.w3.org/2000/svg" width="40" height="40" viewBox="0 0 40 40">
  <circle id="Img" cx="20" cy="20" r="20" fill="#dfe1e1"/>
  <path id="Dribbble" d="M7.715,15.429A7.672,7.672,0,0,1,3.4,14.11a7.7,7.7,0,0,1-2.082-2.082,7.59,7.59,0,0,1-.712-1.311A7.678,7.678,0,0,1,.156,9.268,7.71,7.71,0,0,1,.607,4.712,7.583,7.583,0,0,1,1.319,3.4,7.745,7.745,0,0,1,3.4,1.319a7.711,7.711,0,0,1,9.77.942A7.66,7.66,0,0,1,14.11,3.4a7.583,7.583,0,0,1,.712,1.309,7.693,7.693,0,0,1,.607,3,7.8,7.8,0,0,1-.157,1.554,7.673,7.673,0,0,1-.45,1.449,7.59,7.59,0,0,1-.712,1.311,7.749,7.749,0,0,1-3.393,2.794,7.581,7.581,0,0,1-1.449.448A7.676,7.676,0,0,1,7.715,15.429ZM3.657,12.9h0a6.595,6.595,0,0,0,6.631.875,27.453,27.453,0,0,0-1.408-5l-.016,0-.005,0-.023.007a10.034,10.034,0,0,0-4.051,2.569A6.857,6.857,0,0,0,3.667,12.9l-.005,0h0Zm7.827-4.537a8.594,8.594,0,0,0-1.371.106,28.813,28.813,0,0,1,1.283,4.7,6.6,6.6,0,0,0,2.823-4.415A9.152,9.152,0,0,0,11.484,8.367ZM1.153,7.506l-.022,0c0,.022,0,.043,0,.066,0,.046,0,.092,0,.139a6.576,6.576,0,0,0,1.685,4.4l0-.008A10.64,10.64,0,0,1,8.17,7.766c.1-.033.191-.06.251-.076l.008,0c-.151-.346-.33-.724-.534-1.121a24.342,24.342,0,0,1-6.541.94Zm10.075-.164a15.706,15.706,0,0,1,3.073.306,6.594,6.594,0,0,0-1.5-4.117A8.51,8.51,0,0,1,9.131,6.137c.165.336.308.649.438.957.029.067.057.132.085.2l.029.068.029.068A12.257,12.257,0,0,1,11.227,7.342ZM4.9,1.757a6.616,6.616,0,0,0-3.636,4.6h.123a24.512,24.512,0,0,0,5.96-.806A39.042,39.042,0,0,0,4.912,1.769Zm2.812-.63a6.645,6.645,0,0,0-1.553.185A33.653,33.653,0,0,1,8.624,5.156a7.219,7.219,0,0,0,3.442-2.385A6.578,6.578,0,0,0,7.715,1.127Z" transform="translate(12 12)" fill="#ec4989"/>
</svg>
