<svg xmlns="http://www.w3.org/2000/svg" xmlns:xlink="http://www.w3.org/1999/xlink" width="507.586" height="380" viewBox="0 0 507.586 380">
  <defs>
    <filter id="Rectangle" x="0" y="0" width="507.586" height="380" filterUnits="userSpaceOnUse">
      <feOffset dy="32" input="SourceAlpha"/>
      <feGaussianBlur stdDeviation="30" result="blur"/>
      <feFlood flood-color="#4d7cfe" flood-opacity="0.157"/>
      <feComposite operator="in" in2="blur"/>
      <feComposite in="SourceGraphic"/>
    </filter>
  </defs>
  <g id="bg" transform="translate(90 58)">
    <g transform="matrix(1, 0, 0, 1, -90, -58)" filter="url(#Rectangle)">
      <rect id="Rectangle-2" data-name="Rectangle" width="327.586" height="200" rx="10" transform="translate(90 58)" fill="#4d7cfe"/>
    </g>
    <path id="Rectangle_Copy" data-name="Rectangle Copy" d="M0,10.732A10,10,0,0,1,14.016,1.573l93.9,41.174L18.166,169.726A10,10,0,0,1,0,163.954Z" transform="translate(0 4.31)" fill="rgba(37,38,49,0.06)"/>
    <path id="Rectangle_Copy_2" data-name="Rectangle Copy 2" d="M0,10.732A10,10,0,0,1,14.016,1.573l93.9,41.174L18.166,169.726A10,10,0,0,1,0,163.954Z" transform="translate(177.779 0) rotate(90)" fill="rgba(37,38,49,0.06)"/>
  </g>
</svg>
