<svg xmlns="http://www.w3.org/2000/svg" width="26.64" height="8.335" viewBox="0 0 26.64 8.335">
  <g id="Visa" transform="translate(0 -0.033)">
    <path id="Shape" d="M0,7.855,1.353,0H3.467L2.157,7.855Z" transform="translate(9.768 0.295)" fill="#3c58bf"/>
    <path id="Shape-2" data-name="Shape" d="M0,7.855,1.734,0H3.467L2.157,7.855Z" transform="translate(9.768 0.295)" fill="#293688"/>
    <path id="Shape-3" data-name="Shape" d="M6.47.349A5.217,5.217,0,0,0,4.525,0C2.41,0,.888,1.091.888,2.662c0,1.178,1.057,1.789,1.9,2.182s1.1.655,1.1,1c0,.524-.677.785-1.269.785A4.476,4.476,0,0,1,.592,6.2L.3,6.065,0,7.855a6.668,6.668,0,0,0,2.41.436c2.241,0,3.721-1.091,3.721-2.749,0-.916-.55-1.615-1.818-2.182-.761-.393-1.226-.611-1.226-1,0-.349.381-.7,1.226-.7a3.774,3.774,0,0,1,1.607.305l.211.087L6.47.349Z" transform="translate(13.109 0.033)" fill="#3c58bf"/>
    <path id="Shape-4" data-name="Shape" d="M6.47.349A5.217,5.217,0,0,0,4.525,0C2.41,0,1.269,1.091,1.269,2.662A2.275,2.275,0,0,0,2.791,4.844c.846.393,1.1.655,1.1,1,0,.524-.677.785-1.269.785A4.476,4.476,0,0,1,.592,6.2L.3,6.065,0,7.855a6.668,6.668,0,0,0,2.41.436c2.241,0,3.721-1.091,3.721-2.749,0-.916-.55-1.615-1.818-2.182-.761-.393-1.226-.611-1.226-1,0-.349.381-.7,1.226-.7a3.774,3.774,0,0,1,1.607.305l.211.087L6.47.349Z" transform="translate(13.109 0.033)" fill="#293688"/>
    <path id="Shape-5" data-name="Shape" d="M2.283,7.855H0L3.172.567C3.384.041,3.761,0,4.271,0H5.92L7.7,7.853H5.666L5.413,6.546H2.706L2.283,7.854ZM4.44,2.138c-.125.3-.294.78-.3.785S3.424,4.848,3.3,5.236V5.28H5.074c-.083-.429-.5-2.381-.508-2.4Z" transform="translate(18.944 0.295)" fill="#3c58bf"/>
    <path id="Shape-6" data-name="Shape" d="M2.283,7.855H0L3.679.567C3.892.041,4.269,0,4.778,0H5.92L7.7,7.853H5.666L5.413,6.546H2.706L2.283,7.854ZM4.44,2.138c-.125.3-.294.78-.3.785S3.467,4.8,3.3,5.236V5.28H5.074c-.083-.429-.5-2.381-.508-2.4Z" transform="translate(18.944 0.295)" fill="#293688"/>
    <path id="Shape-7" data-name="Shape" d="M3.171,5.455,2.96,4.32A6.267,6.267,0,0,0,0,.873L1.9,7.855H4.186L7.611,0H5.328Z" transform="translate(2.706 0.338)" fill="#3c58bf"/>
    <path id="Shape-8" data-name="Shape" d="M3.171,5.455,2.96,4.32A6.267,6.267,0,0,0,0,.873L1.9,7.855H4.186L7.611,0H5.751Z" transform="translate(2.706 0.338)" fill="#293688"/>
    <path id="Shape-9" data-name="Shape" d="M0,0,.381.087A7.182,7.182,0,0,1,5.666,4.364L4.905.655C4.778.131,4.4,0,3.933,0H0Z" transform="translate(0 0.295)" fill="#ffbc00"/>
    <path id="Shape-10" data-name="Shape" d="M0,0H0C2.706.655,4.947,2.356,5.666,4.32l-.719-3.1A1.039,1.039,0,0,0,3.933.393Z" transform="translate(0 0.295)" fill="#f7981d"/>
    <path id="Shape-11" data-name="Shape" d="M0,0H0C2.706.655,4.947,2.356,5.666,4.32l-.507-1.7a1.536,1.536,0,0,0-.888-1.265Z" transform="translate(0 0.295)" fill="#ed7c00"/>
    <g id="Group" transform="translate(2.749 1.145)">
      <path id="Shape-12" data-name="Shape" d="M5.243,4.364,3.806,2.88,3.129,4.538,2.96,3.447A6.267,6.267,0,0,0,0,0L1.9,6.982H4.186Z" transform="translate(0 0.022)" fill="#051244"/>
      <path id="Shape-13" data-name="Shape" d="M2.157,1.92.338,0,0,1.92Z" transform="translate(7.019 5.084)" fill="#051244"/>
      <path id="Shape-14" data-name="Shape" d="M3.679,0h0c.169.175.254.305.211.48,0,.524-.677.785-1.269.785A4.476,4.476,0,0,1,.592.829L.3.7,0,2.487a6.668,6.668,0,0,0,2.41.436A4.11,4.11,0,0,0,5.5,1.833Z" transform="translate(10.36 4.298)" fill="#051244"/>
      <path id="Shape-15" data-name="Shape" d="M0,5.716H1.987L2.41,4.407H5.117L5.37,5.716H7.4L6.681,2.531,4.144,0l.127.7s.423,1.964.507,2.4H3c.169-.436.846-2.313.846-2.313s.169-.48.3-.785" transform="translate(16.492 1.287)" fill="#051244"/>
    </g>
  </g>
</svg>
