<svg id="Visa" xmlns="http://www.w3.org/2000/svg" width="38.057" height="11.906" viewBox="0 0 38.057 11.906">
  <path id="Shape" d="M0,11.221,1.933,0h3.02L3.081,11.221Z" transform="translate(13.954 0.374)" fill="#3c58bf"/>
  <path id="Shape-2" data-name="Shape" d="M0,11.221,2.477,0H4.953L3.081,11.221Z" transform="translate(13.954 0.374)" fill="#293688"/>
  <path id="Shape-3" data-name="Shape" d="M9.243.5A7.452,7.452,0,0,0,6.464,0c-3.02,0-5.2,1.558-5.2,3.8,0,1.683,1.51,2.556,2.718,3.117s1.571.935,1.571,1.434c0,.748-.967,1.122-1.812,1.122a6.394,6.394,0,0,1-2.9-.623L.423,8.665,0,11.221a9.526,9.526,0,0,0,3.443.623c3.2,0,5.316-1.558,5.316-3.927,0-1.309-.785-2.306-2.6-3.117C5.074,4.239,4.41,3.927,4.41,3.366c0-.5.544-1,1.752-1a5.392,5.392,0,0,1,2.3.436l.3.125L9.243.5Z" transform="translate(18.727 0)" fill="#3c58bf"/>
  <path id="Shape-4" data-name="Shape" d="M9.243.5A7.452,7.452,0,0,0,6.464,0C3.443,0,1.812,1.558,1.812,3.8A3.25,3.25,0,0,0,3.987,6.919c1.208.561,1.571.935,1.571,1.434,0,.748-.967,1.122-1.812,1.122a6.394,6.394,0,0,1-2.9-.623L.423,8.665,0,11.221a9.526,9.526,0,0,0,3.443.623c3.2,0,5.316-1.558,5.316-3.927,0-1.309-.785-2.306-2.6-3.117C5.074,4.239,4.41,3.927,4.41,3.366c0-.5.544-1,1.752-1a5.392,5.392,0,0,1,2.3.436l.3.125L9.243.5Z" transform="translate(18.727 0)" fill="#293688"/>
  <path id="Shape-5" data-name="Shape" d="M3.262,11.222H0L4.531.81C4.835.058,5.373,0,6.1,0H8.457l2.537,11.22h-2.9l-.363-1.87H3.866l-.6,1.87ZM6.343,3.055c-.179.43-.421,1.115-.423,1.122-.01.027-1.029,2.748-1.209,3.3v.062H7.249c-.119-.613-.718-3.4-.724-3.429Z" transform="translate(27.063 0.374)" fill="#3c58bf"/>
  <path id="Shape-6" data-name="Shape" d="M3.262,11.222H0L5.255.81C5.559.058,6.1,0,6.826,0H8.457l2.537,11.22h-2.9l-.363-1.87H3.866l-.6,1.87ZM6.343,3.055c-.179.43-.421,1.115-.423,1.122-.1.279-.98,2.713-1.209,3.3v.062H7.249c-.119-.613-.718-3.4-.724-3.429Z" transform="translate(27.063 0.374)" fill="#293688"/>
  <path id="Shape-7" data-name="Shape" d="M4.531,7.792l-.3-1.621A8.953,8.953,0,0,0,0,1.247l2.718,9.974H5.98L10.874,0H7.611Z" transform="translate(3.866 0.436)" fill="#3c58bf"/>
  <path id="Shape-8" data-name="Shape" d="M4.531,7.792l-.3-1.621A8.953,8.953,0,0,0,0,1.247l2.718,9.974H5.98L10.874,0H8.216Z" transform="translate(3.866 0.436)" fill="#293688"/>
  <path id="Shape-9" data-name="Shape" d="M0,0,.544.125c3.866.935,6.524,3.3,7.551,6.109L7.007.935C6.826.187,6.282,0,5.618,0H0Z" transform="translate(0 0.374)" fill="#ffbc00"/>
  <path id="Shape-10" data-name="Shape" d="M0,0H0C3.866.935,7.068,3.366,8.095,6.171L7.068,1.745A1.484,1.484,0,0,0,5.618.561Z" transform="translate(0 0.374)" fill="#f7981d"/>
  <path id="Shape-11" data-name="Shape" d="M0,0H0C3.866.935,7.068,3.366,8.095,6.171L7.37,3.74A2.195,2.195,0,0,0,6.1,1.932Z" transform="translate(0 0.374)" fill="#ed7c00"/>
  <g id="Group" transform="translate(3.927 1.621)">
    <path id="Shape-12" data-name="Shape" d="M7.491,6.234,5.437,4.114,4.47,6.483,4.229,4.925A8.953,8.953,0,0,0,0,0L2.718,9.974H5.98Z" transform="translate(0 0)" fill="#051244"/>
    <path id="Shape-13" data-name="Shape" d="M3.081,2.743.483,0,0,2.743Z" transform="translate(10.028 7.231)" fill="#051244"/>
    <path id="Shape-14" data-name="Shape" d="M5.256,0h0c.242.249.362.436.3.686,0,.748-.967,1.122-1.812,1.122a6.394,6.394,0,0,1-2.9-.623L.423,1,0,3.553a9.526,9.526,0,0,0,3.443.623,5.871,5.871,0,0,0,4.41-1.558Z" transform="translate(14.8 6.109)" fill="#051244"/>
    <path id="Shape-15" data-name="Shape" d="M0,8.166H2.839l.6-1.87H7.309l.362,1.87h2.9L9.545,3.616,5.92,0,6.1,1s.6,2.805.725,3.429H4.289C4.531,3.8,5.5,1.122,5.5,1.122S5.739.436,5.92,0" transform="translate(23.559 1.808)" fill="#051244"/>
  </g>
</svg>
